<svg xmlns="http://www.w3.org/2000/svg" width="551" height="266.57" viewBox="0 0 551 266.57">
  <g id="Group_3148" data-name="Group 3148" transform="translate(-19 -116)">
    <rect id="Rectangle_1716" data-name="Rectangle 1716" width="551" height="266.57" transform="translate(19 116)" fill="#e8e8e6"/>
    <g id="noun_Camera_1607133_000000" transform="translate(259.969 216.862)">
      <g id="Group_3121" data-name="Group 3121" transform="translate(19.93 20.97)">
        <g id="Group_3120" data-name="Group 3120">
          <g id="Group_3119" data-name="Group 3119">
            <g id="Group_3118" data-name="Group 3118">
              <path id="Path_1670" data-name="Path 1670" d="M34.995,34.97a5.075,5.075,0,1,0,5.08,5.07A5.083,5.083,0,0,0,34.995,34.97Z" transform="translate(-29.925 -34.97)" fill="#bebebe"/>
            </g>
          </g>
        </g>
      </g>
      <g id="Group_3125" data-name="Group 3125">
        <g id="Group_3124" data-name="Group 3124">
          <g id="Group_3123" data-name="Group 3123">
            <g id="Group_3122" data-name="Group 3122">
              <path id="Path_1671" data-name="Path 1671" d="M57.295,20.92H42.345l-1.63-6.17a.994.994,0,0,0-.96-.75h-9.51a1.014,1.014,0,0,0-.97.75l-1.63,6.17H16.495V18.46a1,1,0,0,0-2,0v2.46h-1.79a2.714,2.714,0,0,0-2.71,2.72V53.29A2.706,2.706,0,0,0,12.705,56h44.59a2.712,2.712,0,0,0,2.71-2.71V23.64A2.721,2.721,0,0,0,57.295,20.92Zm-22.3,30.42a11.3,11.3,0,1,1,11.29-11.3A11.312,11.312,0,0,1,34.995,51.34Zm16.67-19.08a3.34,3.34,0,1,1,3.34-3.34A3.346,3.346,0,0,1,51.665,32.26Z" transform="translate(-9.995 -14)" fill="#bebebe"/>
            </g>
          </g>
        </g>
      </g>
    </g>
  </g>
</svg>
