<svg xmlns="http://www.w3.org/2000/svg" width="16.561" height="17.803" viewBox="0 0 16.561 17.803">
  <path id="Path_1738" data-name="Path 1738" d="M39.729,44.147H31.035a1.035,1.035,0,0,1,0-2.07h8.694a2.692,2.692,0,0,1,4.97,0h.827a1.035,1.035,0,0,1,0,2.07H44.7a2.692,2.692,0,0,1-4.97,0Zm-7.866-6.21h-.827a1.035,1.035,0,0,1,0-2.07h.827a2.692,2.692,0,0,1,4.97,0h8.694a1.035,1.035,0,0,1,0,2.07H36.832a2.692,2.692,0,0,1-4.97,0Zm7.866-6.21H31.035a1.035,1.035,0,0,1,0-2.07h8.694a2.692,2.692,0,0,1,4.97,0h.827a1.035,1.035,0,0,1,0,2.07H44.7a2.692,2.692,0,0,1-4.97,0Z" transform="translate(-30 -28)" fill="#ffffff" fill-rule="evenodd"/>
</svg>
