<svg xmlns="http://www.w3.org/2000/svg" viewBox="0 0 85.515 86.04">
  <g id="noun_Double_Right_216445" data-name="noun_Double Right_216445" transform="translate(-7.242 -6.98)">
    <g id="Group_2786" data-name="Group 2786">
		<path id="Path_1479" data-name="Path 1479" class="cls-1" d="M91.633,47.37,52.368,8.1a3.837,3.837,0,0,0-5.427,5.427L83.494,50.083,47.108,86.469A3.837,3.837,0,1,0,52.534,91.9l39.1-39.1A3.836,3.836,0,0,0,91.633,47.37Z"/>
		<path id="Path_1480" data-name="Path 1480" class="cls-1" d="M54.184,50.083A3.839,3.839,0,0,0,53.06,47.37L13.793,8.1a3.837,3.837,0,0,0-5.427,5.427L44.92,50.083,8.533,86.469A3.837,3.837,0,1,0,13.959,91.9l39.1-39.1A3.84,3.84,0,0,0,54.184,50.083Z"/>
    </g>
  </g>
</svg>
