<svg xmlns="http://www.w3.org/2000/svg" width="16.93" height="16.297" viewBox="0 0 16.93 16.297">
  <defs>
    <style>
      .cls-1 {
        fill: #ffffff;
      }
    </style>
  </defs>
  <g id="Group_2797" data-name="Group 2797" transform="translate(0 0)">
    <g id="Group_2792" data-name="Group 2792">
      <g id="Group_2791" data-name="Group 2791">
        <g id="Group_2790" data-name="Group 2790">
          <path id="Path_1484" data-name="Path 1484" class="cls-1" d="M17.655,17.919H17.02V7.133l.5.291a.272.272,0,1,0,.264-.476c-1.348-.793-5-2.908-8.2-4.758a.24.24,0,0,0-.264,0l-8.2,4.758a.293.293,0,0,0-.106.37.293.293,0,0,0,.37.106l.5-.291V17.919H1.264a.264.264,0,1,0,0,.529h16.39a.265.265,0,0,0,.264-.264A.25.25,0,0,0,17.655,17.919ZM9.459,3.934A1.718,1.718,0,1,1,7.741,5.653,1.715,1.715,0,0,1,9.459,3.934ZM13.98,17.919H4.939V9.909H13.98ZM9.459,6.816a1.19,1.19,0,1,0-1.19-1.19A1.185,1.185,0,0,0,9.459,6.816Z" transform="translate(-1 -2.15)"/>
        </g>
      </g>
    </g>
    <g id="Group_2796" data-name="Group 2796" transform="translate(4.415 8.34)">
      <g id="Group_2793" data-name="Group 2793" transform="translate(4.309)">
        <path id="Path_1485" data-name="Path 1485" class="cls-1" d="M37.78,33.964v2.67a.265.265,0,0,1-.264.264H34.264A.265.265,0,0,1,34,36.634v-2.67a.265.265,0,0,1,.264-.264h1.375v.952a.264.264,0,1,0,.529,0V33.7h1.375A.244.244,0,0,1,37.78,33.964Z" transform="translate(-34 -33.7)"/>
      </g>
      <g id="Group_2794" data-name="Group 2794" transform="translate(0 3.648)">
        <path id="Path_1486" data-name="Path 1486" class="cls-1" d="M21.48,47.764v2.67a.25.25,0,0,1-.264.264H17.964a.265.265,0,0,1-.264-.264v-2.67a.284.284,0,0,1,.264-.264h1.375v.952a.264.264,0,1,0,.529,0V47.5h1.348A.265.265,0,0,1,21.48,47.764Z" transform="translate(-17.7 -47.5)"/>
      </g>
      <g id="Group_2795" data-name="Group 2795" transform="translate(4.309 3.648)">
        <path id="Path_1487" data-name="Path 1487" class="cls-1" d="M37.78,47.764v2.67a.265.265,0,0,1-.264.264H34.264A.265.265,0,0,1,34,50.434v-2.67a.284.284,0,0,1,.264-.264h1.375v.952a.264.264,0,1,0,.529,0V47.5h1.375A.261.261,0,0,1,37.78,47.764Z" transform="translate(-34 -47.5)"/>
      </g>
    </g>
  </g>
</svg>
