<svg xmlns="http://www.w3.org/2000/svg" width="18.045" height="17.711" viewBox="0 0 18.045 17.711">
  <path id="noun_Calendar_831850_000000" d="M6.825,11.573a.515.515,0,0,1-.515.515H5.558a.515.515,0,0,1-.515-.515v-.752a.515.515,0,0,1,.515-.515H6.31a.515.515,0,0,1,.515.515Zm2.891-.752a.515.515,0,0,0-.515-.515H8.449a.515.515,0,0,0-.515.515v.752a.515.515,0,0,0,.515.515H9.2a.515.515,0,0,0,.506-.515ZM11.33,12.1h.752a.515.515,0,0,0,.515-.515v-.752a.515.515,0,0,0-.515-.515H11.33a.515.515,0,0,0-.515.515v.752a.515.515,0,0,0,.515.509ZM6.308,13.289H5.556a.515.515,0,0,0-.523.515v.752a.515.515,0,0,0,.515.515H6.3a.515.515,0,0,0,.524-.515V13.8a.515.515,0,0,0-.517-.515Zm2.891,0H8.447a.515.515,0,0,0-.523.515v.752a.515.515,0,0,0,.515.515h.752a.515.515,0,0,0,.515-.515V13.8a.515.515,0,0,0-.508-.515ZM3.624,18.208h7.043a5.475,5.475,0,0,1-.3-1.8H3.786V8.942H16.533v2.013a5.451,5.451,0,0,1,1.8.543V6.369A1.626,1.626,0,0,0,16.7,4.745H14.98V3.523a.643.643,0,0,0-.643-.643H13.33a.643.643,0,0,0-.643.643V4.745H7.639V3.523A.643.643,0,0,0,7,2.882H5.99a.643.643,0,0,0-.641.641V4.745H3.624A1.626,1.626,0,0,0,2,6.369V16.584A1.626,1.626,0,0,0,3.624,18.208Zm16.42-1.8a4.178,4.178,0,1,1-4.178-4.178A4.178,4.178,0,0,1,20.044,16.413Zm-2.353,1.15a.665.665,0,0,0-.188-.474l-.959-.959V14.642a.67.67,0,1,0-1.34,0v2.049l1.351,1.351a.669.669,0,0,0,1.135-.479Z" transform="translate(-2.001 -2.881)" fill="#ffffff"/>
</svg>
