<svg xmlns="http://www.w3.org/2000/svg" viewBox="0 0 86.6 89.6">
  <g id="icon-user-log" transform="translate(-6.7 -5.2)">
    <path id="Path_1" data-name="Path 1" d="M11.2,77.4H16V88.6a6.231,6.231,0,0,0,6.2,6.2H87.1a6.231,6.231,0,0,0,6.2-6.2V11.4a6.231,6.231,0,0,0-6.2-6.2H22.2A6.231,6.231,0,0,0,16,11.4V22.6H11.2a4.481,4.481,0,0,0-4.5,4.5v2.2a4.481,4.481,0,0,0,4.5,4.5H16V44.5H11.2A4.481,4.481,0,0,0,6.7,49v2.2a4.481,4.481,0,0,0,4.5,4.5H16V66.4H11.2a4.481,4.481,0,0,0-4.5,4.5v2.2A4.443,4.443,0,0,0,11.2,77.4ZM31,71.6a11.888,11.888,0,0,1,4.8-9.5,75.167,75.167,0,0,1,10.8-6.5.52.52,0,0,0,.2-.4V51.7A12.51,12.51,0,0,1,45.2,47c-.5,0-1.2-.8-2-3.4-1-3.6.1-4.2,1-4.1A8.685,8.685,0,0,1,44,34a10.734,10.734,0,0,1,2.8-4.9,17.835,17.835,0,0,1,2.6-2.2,11.88,11.88,0,0,1,2.5-1.3h0a8.519,8.519,0,0,1,2.3-.4A9.839,9.839,0,0,1,60,26.4,7.266,7.266,0,0,1,62.8,29s5.1.4,2.9,11.1c.7.2,1.2,1.2.4,4-1,3.5-1.9,3.7-2.4,3.3a15.108,15.108,0,0,1-1.2,3.8v4a.52.52,0,0,0,.2.4,75.166,75.166,0,0,1,10.8,6.5,11.747,11.747,0,0,1,4.8,9.5v.9A2.263,2.263,0,0,1,76,74.8H33.3A2.263,2.263,0,0,1,31,72.5Z"/>
  </g>
</svg>
