<svg id="noun_Calendar_2080380_000000" xmlns="http://www.w3.org/2000/svg" width="15.956" height="14.947" viewBox="0 0 15.956 14.947">
  <path id="Path_1658" data-name="Path 1658" d="M16.759,6.34h-2.15v-.4a.437.437,0,0,0-.873,0v.4H7.219v-.4a.437.437,0,0,0-.873,0v.4H4.2a1.7,1.7,0,0,0-1.7,1.7V18.751a1.692,1.692,0,0,0,1.7,1.7H16.759a1.692,1.692,0,0,0,1.7-1.7V8.036A1.7,1.7,0,0,0,16.759,6.34ZM4.2,7.23h2.15v.4a.437.437,0,0,0,.873,0v-.4h6.517v.4a.437.437,0,0,0,.873,0v-.4h2.15a.824.824,0,0,1,.823.823V9.229H3.373V8.053A.814.814,0,0,1,4.2,7.23ZM16.759,19.558H4.2a.824.824,0,0,1-.823-.823V10.1H17.565v8.65A.786.786,0,0,1,16.759,19.558Z" transform="translate(-2.5 -5.5)" fill="#404040"/>
  <path id="Path_1659" data-name="Path 1659" d="M18.068,40.8H16.489a.788.788,0,0,0-.789.789V42.8a.788.788,0,0,0,.789.789h1.579a.788.788,0,0,0,.789-.789V41.589A.778.778,0,0,0,18.068,40.8Zm-.084,1.931H16.573V41.69h1.411Z" transform="translate(-13.483 -34.871)" fill="#404040"/>
  <path id="Path_1660" data-name="Path 1660" d="M42.968,40.8H41.389a.788.788,0,0,0-.789.789V42.8a.788.788,0,0,0,.789.789h1.579a.788.788,0,0,0,.789-.789V41.589A.778.778,0,0,0,42.968,40.8Zm-.084,1.931H41.473V41.69h1.411Z" transform="translate(-34.201 -34.871)" fill="#404040"/>
  <path id="Path_1661" data-name="Path 1661" d="M67.868,40.8H66.289a.788.788,0,0,0-.789.789V42.8a.788.788,0,0,0,.789.789h1.579a.788.788,0,0,0,.789-.789V41.589A.788.788,0,0,0,67.868,40.8Zm-.084,1.931H66.373V41.69h1.411Z" transform="translate(-54.919 -34.871)" fill="#404040"/>
  <path id="Path_1662" data-name="Path 1662" d="M18.068,64.7H16.489a.788.788,0,0,0-.789.789V66.7a.788.788,0,0,0,.789.789h1.579a.788.788,0,0,0,.789-.789V65.489A.778.778,0,0,0,18.068,64.7Zm-.084,1.931H16.573V65.59h1.411Z" transform="translate(-13.483 -54.757)" fill="#404040"/>
  <path id="Path_1663" data-name="Path 1663" d="M42.968,64.7H41.389a.788.788,0,0,0-.789.789V66.7a.788.788,0,0,0,.789.789h1.579a.788.788,0,0,0,.789-.789V65.489A.778.778,0,0,0,42.968,64.7Zm-.084,1.931H41.473V65.59h1.411Z" transform="translate(-34.201 -54.757)" fill="#404040"/>
  <path id="Path_1664" data-name="Path 1664" d="M67.868,64.7H66.289a.788.788,0,0,0-.789.789V66.7a.788.788,0,0,0,.789.789h1.579a.788.788,0,0,0,.789-.789V65.489A.788.788,0,0,0,67.868,64.7Zm-.084,1.931H66.373V65.59h1.411Z" transform="translate(-54.919 -54.757)" fill="#404040"/>
</svg>
