<svg xmlns="http://www.w3.org/2000/svg" viewBox="0 0 14.91 15.198"><defs><style>.a{fill:#c91a13;}</style></defs><g transform="translate(-102.362 -94.456)"><g transform="translate(103.713 96.895)"><path class="a" d="M186.984,229.376v8.553c0,.373,0,.746,0,1.118a1.209,1.209,0,0,1-.013.182l.033-.242a1.357,1.357,0,0,1-.084.306c.031-.073.062-.146.091-.217a1.334,1.334,0,0,1-.167.288l.142-.184a1.368,1.368,0,0,1-.217.218l.184-.142a1.341,1.341,0,0,1-.288.169l.217-.091a1.359,1.359,0,0,1-.306.084l.242-.033a2.864,2.864,0,0,1-.353.013H179.7c-.306,0-.612,0-.917,0a1.2,1.2,0,0,1-.18-.013l.242.033a1.4,1.4,0,0,1-.308-.084l.217.091a1.281,1.281,0,0,1-.289-.169l.184.142a1.317,1.317,0,0,1-.22-.218l.142.184a1.393,1.393,0,0,1-.171-.288c.031.073.062.146.091.217a1.362,1.362,0,0,1-.086-.306l.033.242a2.908,2.908,0,0,1-.013-.4v-8.245c0-.4.007-.8,0-1.194v-.016l-.91.91h9.1c.419,0,.839.005,1.258,0h.018a.947.947,0,0,0,.644-.266.914.914,0,0,0,0-1.289.944.944,0,0,0-.644-.266h-9.1c-.419,0-.839-.005-1.258,0h-.018a.924.924,0,0,0-.91.91v9.638a2.169,2.169,0,0,0,2.171,2.206h7.193c.233,0,.468.005.7,0a2.169,2.169,0,0,0,1.86-1.114,2.306,2.306,0,0,0,.271-1.1v-9.634a.947.947,0,0,0-.266-.644.914.914,0,0,0-1.289,0A1,1,0,0,0,186.984,229.376Z" transform="translate(-176.6 -228.462)"/></g><g transform="translate(106.31 94.456)"><path class="a" d="M324.476,96.622v1.185l.91-.91H320.2l.91.91V97.15a5.375,5.375,0,0,1,.013-.706l-.033.242a1.357,1.357,0,0,1,.084-.306c-.031.073-.062.146-.091.217a1.27,1.27,0,0,1,.169-.288l-.142.184a1.307,1.307,0,0,1,.218-.218l-.184.142a1.388,1.388,0,0,1,.288-.169l-.217.091a1.359,1.359,0,0,1,.306-.084l-.242.033a3.212,3.212,0,0,1,.4-.013h2.171a3.584,3.584,0,0,1,.464.013l-.242-.033a1.36,1.36,0,0,1,.306.084l-.217-.091a1.27,1.27,0,0,1,.288.169l-.184-.142a1.3,1.3,0,0,1,.218.218l-.142-.184a1.388,1.388,0,0,1,.169.288c-.031-.073-.062-.146-.091-.217a1.357,1.357,0,0,1,.084.306l-.033-.242c.005.062.009.12.009.178a.948.948,0,0,0,.266.644.914.914,0,0,0,1.289,0,.936.936,0,0,0,.266-.644,2.161,2.161,0,0,0-.723-1.611,2.247,2.247,0,0,0-.879-.481,2.393,2.393,0,0,0-.579-.075c-.415,0-.828,0-1.243,0h-1.367a2.265,2.265,0,0,0-1.148.295,2.145,2.145,0,0,0-1.019,1.4,5.241,5.241,0,0,0-.053.97v.683a.924.924,0,0,0,.91.91h5.187a.924.924,0,0,0,.91-.91V96.621a.947.947,0,0,0-.266-.644.914.914,0,0,0-1.289,0A.978.978,0,0,0,324.476,96.622Z" transform="translate(-319.285 -94.456)"/></g><g transform="translate(102.362 96.898)"><path class="a" d="M116.361,228.656H103.8c-.169,0-.34,0-.51,0h-.022a.947.947,0,0,0-.644.266.914.914,0,0,0,0,1.289.944.944,0,0,0,.644.266H115.83c.169,0,.34,0,.51,0h.022a.947.947,0,0,0,.644-.266.914.914,0,0,0,0-1.289.956.956,0,0,0-.644-.266Z" transform="translate(-102.362 -228.656)"/></g><g transform="translate(107.149 100.176)"><path class="a" d="M365.4,409.672v4.377a.947.947,0,0,0,.266.644.914.914,0,0,0,1.289,0,.944.944,0,0,0,.266-.644v-4.377a.947.947,0,0,0-.266-.644.914.914,0,0,0-1.289,0,.952.952,0,0,0-.266.644Z" transform="translate(-365.4 -408.762)"/></g><g transform="translate(110.709 100.176)"><path class="a" d="M561,409.672v4.377a.948.948,0,0,0,.266.644.914.914,0,0,0,1.289,0,.944.944,0,0,0,.266-.644v-4.377a.947.947,0,0,0-.266-.644.914.914,0,0,0-1.289,0,.944.944,0,0,0-.266.644Z" transform="translate(-561 -408.762)"/></g></g></svg>
