<svg xmlns="http://www.w3.org/2000/svg" width="14" height="14" viewBox="0 0 14 14">
    <defs>
        <style>
            .cls-1{fill:#2196f3}
        </style>
    </defs>
    <g id="noun_Arrow_1952960_000000" transform="translate(-2.5 -2.5)">
        <path id="Path_1630" d="M30.873 31.08a.908.908 0 0 0-1.208 0 .707.707 0 0 0 0 1.088l.635.572h-3.748a.81.81 0 0 0-.852.767.82.82 0 0 0 .852.767H30.3l-.635.572a.707.707 0 0 0 0 1.088.929.929 0 0 0 1.208 0l2.106-1.9a.707.707 0 0 0 0-1.088z" class="cls-1" data-name="Path 1630" transform="translate(-19.964 -24.023)"/>
        <path id="Path_1631" d="M13.007 2.5H5.993A3.491 3.491 0 0 0 2.5 5.993v7.015A3.491 3.491 0 0 0 5.993 16.5h7.015a3.491 3.491 0 0 0 3.492-3.493V5.993A3.491 3.491 0 0 0 13.007 2.5zm1.857 10.507a1.868 1.868 0 0 1-1.857 1.857H5.993a1.868 1.868 0 0 1-1.857-1.857V5.993a1.868 1.868 0 0 1 1.857-1.857h7.015a1.868 1.868 0 0 1 1.857 1.857z" class="cls-1" data-name="Path 1631"/>
    </g>
</svg>
