<svg xmlns="http://www.w3.org/2000/svg" width="13.559" height="19.834" viewBox="0 0 13.559 19.834">
  <defs>
    <style>
      .cls-1 {
        fill: #ffffff;
        fill-rule: evenodd;
      }
    </style>
  </defs>
  <g id="noun_report_1547853_000000" transform="translate(0 -0.001)">
    <path id="Path_224" data-name="Path 224" class="cls-1" d="M9.188,2.775V1.531H8.311a.4.4,0,0,1-.4-.4,1.129,1.129,0,0,0-.332-.8v0a1.133,1.133,0,0,0-1.933.8.4.4,0,0,1-.4.4H4.371V2.775H9.188Zm.4.8H3.972a.4.4,0,0,1-.4-.4V2.552H0V19.833H13.559V2.552H9.986v.622a.4.4,0,0,1-.4.4ZM4.243,8.448,6.318,10.2,9.267,6.714a.4.4,0,0,1,.607.514L6.669,11.012a.4.4,0,0,1-.558.047l-2.378-2a.4.4,0,0,1,.511-.607ZM2.658,13.942H10.9a.4.4,0,1,1,0,.8H2.658a.4.4,0,0,1,0-.8Zm-.4,3.233a.4.4,0,0,1,.4-.4H10.9a.4.4,0,1,1,0,.8H2.658a.4.4,0,0,1-.4-.4Z"/>
  </g>
</svg>
