<svg xmlns="http://www.w3.org/2000/svg" width="15.814" height="13.771" viewBox="0 0 15.814 13.771">
  <defs>
    <style>
      .cls-1 {
        fill: #ffffff;
      }
    </style>
  </defs>
  <g id="noun_Package_2032272_000000" transform="translate(-6.5 -8.437)">
    <path id="Path_1665" data-name="Path 1665" class="cls-1" d="M16.317,11.886h6L21.2,9.038a1.023,1.023,0,0,0-.881-.6H8.5a1.023,1.023,0,0,0-.881.6L6.5,11.886h6V12.6h-6v8.964a.648.648,0,0,0,.646.646H21.669a.648.648,0,0,0,.646-.646V12.6h-6ZM12.42,20.6a.172.172,0,0,1-.171.172H8.461A.171.171,0,0,1,8.29,20.6V18.771a.172.172,0,0,1,.171-.172h3.788a.171.171,0,0,1,.171.172V20.6Zm3.251-3.683-1.264-.942-1.264.942V9.083h2.529V16.92Z"/>
    <rect id="Rectangle_1675" data-name="Rectangle 1675" class="cls-1" width="3.281" height="0.403" transform="translate(8.714 19.028)"/>
    <rect id="Rectangle_1676" data-name="Rectangle 1676" class="cls-1" width="1.82" height="0.404" transform="translate(8.714 19.943)"/>
  </g>
</svg>
