<svg xmlns="http://www.w3.org/2000/svg" viewBox="0 0 20 20">
  <defs>
    <style>
      .cls-1 {
        fill: #afafaf;
      }
    </style>
  </defs>
  <path id="Path_48" data-name="Path 48" class="cls-1" d="M82.078,74A3.414,3.414,0,0,1,84,71.094a10.6,10.6,0,0,0-.823-1.99,3.22,3.22,0,0,1-3.229-1.052,3.119,3.119,0,0,1-.812-3.229A10.454,10.454,0,0,0,77.146,64a3.536,3.536,0,0,1-6.292,0,10.454,10.454,0,0,0-1.99.823,3.121,3.121,0,0,1-.812,3.229A3.222,3.222,0,0,1,64.828,69.1,10.144,10.144,0,0,0,64,71.094,3.409,3.409,0,0,1,65.927,74,3.776,3.776,0,0,1,64,77.146a10.454,10.454,0,0,0,.823,1.99,3.243,3.243,0,0,1,4.036,4.042,10.6,10.6,0,0,0,1.99.823,3.536,3.536,0,0,1,6.292,0,10.454,10.454,0,0,0,1.99-.823,3.121,3.121,0,0,1,.813-3.229A3.227,3.227,0,0,1,83.172,78.9a10.742,10.742,0,0,0,.823-1.99A3.408,3.408,0,0,1,82.078,74ZM74,79.12A5.12,5.12,0,1,1,79.12,74,5.122,5.122,0,0,1,74,79.12Z" transform="translate(-64 -64)"/>
</svg>
