<svg xmlns="http://www.w3.org/2000/svg" width="16.896" height="18.321" viewBox="0 0 16.896 18.321">
  <defs>
    <style>
      .cls-1 {
        fill: #212121;
      }
    </style>
  </defs>
  <g id="noun_undefined_259875_000000" transform="translate(-14.488 -104)">
    <path id="Path_191" data-name="Path 191" class="cls-1" d="M25.21,56.911h0c-.671-3.966-5.431-5.268-6.061-5.411a3.665,3.665,0,0,1-4.516,0c-.631.142-5.289,1.424-5.96,5.411h0c-.346,1.668-.244,3.092.61,3.377a4.38,4.38,0,0,0,2.237-.325c.02,0,.02,0,.041-.02h.02a1.356,1.356,0,0,0,.936-1.281V58.6a1.352,1.352,0,0,0-.692-1.18A5.357,5.357,0,0,1,16.931,53.8a5.46,5.46,0,0,1,5.126,3.641,1.377,1.377,0,0,0-.692,1.18v.061a1.381,1.381,0,0,0,.956,1.3h0a4.591,4.591,0,0,0,2.217.325C25.413,60.043,25.556,58.578,25.21,56.911Z" transform="translate(6 61.958)"/>
    <ellipse id="Ellipse_9" data-name="Ellipse 9" class="cls-1" cx="4.414" cy="4.638" rx="4.414" ry="4.638" transform="translate(18.538 104)"/>
    <path id="Path_192" data-name="Path 192" class="cls-1" d="M56.5,78.331a1.575,1.575,0,0,1,.224.814,1.55,1.55,0,0,1-.325.956,16.638,16.638,0,0,0,2.848-.386,5.372,5.372,0,0,0,.041-.59,4.236,4.236,0,0,0-.915-2.624Z" transform="translate(-32.167 42.043)"/>
    <path id="Path_193" data-name="Path 193" class="cls-1" d="M32.187,78.41,30.336,76.6a4.093,4.093,0,0,0-.936,2.624,5.373,5.373,0,0,0,.041.59,16.828,16.828,0,0,0,2.848.366,1.6,1.6,0,0,1-.325-.956A1.522,1.522,0,0,1,32.187,78.41Z" transform="translate(-10.659 41.964)"/>
    <path id="Path_194" data-name="Path 194" class="cls-1" d="M46.814,85.5a.814.814,0,1,0,.814.814A.816.816,0,0,0,46.814,85.5Z" transform="translate(-23.882 34.874)"/>
    <path id="Path_195" data-name="Path 195" class="cls-1" d="M39.405,68.9a4.1,4.1,0,0,0-2.705,1l1.871,1.81a1.649,1.649,0,0,1,.834-.224,1.551,1.551,0,0,1,.854.244l1.871-1.81A4.216,4.216,0,0,0,39.405,68.9Z" transform="translate(-16.474 48.098)"/>
  </g>
</svg>
