<svg xmlns="http://www.w3.org/2000/svg" width="30.439" height="26" viewBox="0 0 30.439 26">
  <path id="icon-barcode" d="M26.1,35V33.732h5.073V28.659h1.268V35Zm.628-4.439V13.439H28V30.561Zm4.445-20.293H26.1V9h6.341v6.341H31.171Zm-7.293,3.171h1.906V30.561H23.877Zm-4.124,0h3.491V30.561H19.753V13.439Zm-3.481,0h1.9V30.561h-1.9Zm-1.909,0H15V30.561h-.639Zm-2.532,0h1.9V30.561h-1.9Zm-5.392,0h4.119V30.561H6.439Zm-3.171,1.9H2V9H8.341v1.268H3.268Zm0,18.39H8.341V35H2V28.659H3.268Z" transform="translate(-2 -9)" fill="#351c15" fill-rule="evenodd"/>
</svg>
