<svg xmlns="http://www.w3.org/2000/svg" viewBox="0 0 17.238 15.351">
    <defs>
      <style>.a{fill:#2196f3;}</style>
    </defs>
    <g transform="translate(-2151 -626)">
      <path class="a" d="M12.049,2.492l2.7,2.7a.294.294,0,0,1,0,.414L8.212,12.16l-2.777.309a.583.583,0,0,1-.643-.645L5.1,9.041l6.536-6.549a.292.292,0,0,1,.413,0ZM16.9,1.805,15.436.342a1.169,1.169,0,0,0-1.652,0L12.725,1.4a.294.294,0,0,0,0,.414l2.7,2.7a.292.292,0,0,0,.413,0L16.9,3.461A1.174,1.174,0,0,0,16.9,1.805Zm-5.4,8.573v3.053H1.915v-9.6H8.793a.368.368,0,0,0,.254-.1l1.2-1.2a.36.36,0,0,0-.254-.615H1.437A1.438,1.438,0,0,0,0,3.356V13.911a1.438,1.438,0,0,0,1.437,1.439H11.971a1.438,1.438,0,0,0,1.437-1.439V9.179a.36.36,0,0,0-.614-.255l-1.2,1.2A.369.369,0,0,0,11.492,10.379Z" transform="translate(2151 626)"/>
    </g>
</svg>
