<svg xmlns="http://www.w3.org/2000/svg" width="13.656" height="13.688" viewBox="0 0 13.656 13.688">
    <defs>
        <style>
            .cls-1{fill:#868686}
        </style>
    </defs>
    <g id="noun_edit_958191_000000" transform="translate(-7.684 -6.775)">
        <path id="Path_1632" d="M19.958 7.267a1.674 1.674 0 0 0-2.37 0l-8.624 8.606a.3.3 0 0 0-.067.084.016.016 0 0 1-.017.017c-.017.034-.034.05-.034.084v.017L7.7 19.807a.543.543 0 0 0 .118.5.484.484 0 0 0 .353.151.465.465 0 0 0 .151-.017l3.719-1.141h.017c.034-.017.067-.017.084-.034a.016.016 0 0 0 .017-.017.168.168 0 0 0 .084-.067l8.607-8.607a1.674 1.674 0 0 0 0-2.37zM8.948 19.185l.622-2 1.4 1.4zm11.2-9.346l-1.009 1.009L17.285 9l1.009-1.009a.67.67 0 0 1 .958 0l.908.908a.665.665 0 0 1-.017.94z" class="cls-1" data-name="Path 1632"/>
    </g>
</svg>
