<svg xmlns="http://www.w3.org/2000/svg" viewBox="0 0 85.514 86.041">
	<g id="noun_Double_Left_216446" data-name="noun_Double Left_216446" transform="translate(-7.244 -6.979)">
		<g id="Group_2785" data-name="Group 2785">
		<path id="Path_1477" data-name="Path 1477" class="cls-1" d="M8.368,52.63,47.633,91.9a3.837,3.837,0,0,0,5.427-5.427L16.506,49.917,52.893,13.53A3.837,3.837,0,1,0,47.467,8.1L8.368,47.2A3.837,3.837,0,0,0,8.368,52.63Z"/>
		<path id="Path_1478" data-name="Path 1478" class="cls-1" d="M45.817,49.917a3.838,3.838,0,0,0,1.124,2.713L86.208,91.9a3.837,3.837,0,1,0,5.426-5.427L55.081,49.917,91.468,13.53A3.837,3.837,0,1,0,86.041,8.1l-39.1,39.1A3.84,3.84,0,0,0,45.817,49.917Z"/>
		</g>
	</g>
</svg>
