<svg id="noun_Bell_1497524_000000" xmlns="http://www.w3.org/2000/svg" width="19.02" height="21.749" viewBox="0 0 19.02 21.749">
  <defs>
    <style>
      .cls-1 {
        fill: #fff;
        fill-rule: evenodd;
      }
    </style>
  </defs>
  <path id="Path_987" data-name="Path 987" class="cls-1" d="M1.533,18.572a1.263,1.263,0,1,1,0-2.525C2.918,16.047,3,11.159,3,9.449,3,5.376,5.443,3.014,8.212,2.444a1.712,1.712,0,1,1,3.1,0c2.769.57,5.213,2.932,5.213,7.005,0,1.711.081,6.6,1.466,6.6a1.263,1.263,0,1,1,0,2.525Z" transform="translate(-0.25)"/>
  <path id="Path_988" data-name="Path 988" class="cls-1" d="M99.346,235a1.716,1.716,0,1,1-2.932,0Z" transform="translate(-88.37 -215.858)"/>
</svg>
