<svg xmlns="http://www.w3.org/2000/svg" viewBox="0 0 60.508 80.498">
  <defs>
    <style>
      .cls-1 {
        fill: #7d7d7d;
      }
    </style>
  </defs>
  <g id="Group_2782" data-name="Group 2782" transform="translate(-3471.833 -8139)">
    <g id="noun_Upload_file_1268375" data-name="noun_Upload file_1268375" transform="translate(3452 8129.258)">
      <path id="Path_1476" data-name="Path 1476" class="cls-1" d="M70.75,9.75H40.85a1.49,1.49,0,0,0-.3,0l-.19.06h-.09l-.19.1L40,10a1.51,1.51,0,0,0-.23.19l-19.6,19.6A1.51,1.51,0,0,0,20,30v.07a1.48,1.48,0,0,0-.1.19v.09a1.45,1.45,0,0,0-.06.19,1.5,1.5,0,0,0,0,.3v49.9a9.51,9.51,0,0,0,9.5,9.5h41.5a9.51,9.51,0,0,0,9.5-9.5V19.25a9.51,9.51,0,0,0-9.59-9.5Zm-31.4,5.12v12a2.5,2.5,0,0,1-2.5,2.5h-12Zm37.9,65.88a6.51,6.51,0,0,1-6.5,6.5H29.25a6.51,6.51,0,0,1-6.5-6.5V32.35h14.1a5.51,5.51,0,0,0,5.5-5.5V12.75h28.4a6.51,6.51,0,0,1,6.5,6.5Z"/>
    </g>
    <path id="Path_1481" data-name="Path 1481" class="cls-1" d="M176.315,335h-34.76c-1.414,0-2.556.8-2.556,1.8s1.142,1.8,2.556,1.8h34.76c1.414,0,2.556-.8,2.556-1.8S177.73,335,176.315,335Z" transform="translate(3342.952 7861.863)"/>
    <path id="Path_1482" data-name="Path 1482" class="cls-1" d="M176.315,335h-34.76c-1.414,0-2.556.8-2.556,1.8s1.142,1.8,2.556,1.8h34.76c1.414,0,2.556-.8,2.556-1.8S177.73,335,176.315,335Z" transform="translate(3342.952 7851.863)"/>
    <path id="Path_1483" data-name="Path 1483" class="cls-1" d="M176.315,335h-34.76c-1.414,0-2.556.8-2.556,1.8s1.142,1.8,2.556,1.8h34.76c1.414,0,2.556-.8,2.556-1.8S177.73,335,176.315,335Z" transform="translate(3342.952 7841.863)"/>
  </g>
</svg>
