<svg xmlns="http://www.w3.org/2000/svg" width="14.678" height="14.677" viewBox="0 0 14.678 14.677">
    <defs>
        <style>
            .cls-1{fill:#2196f3}
        </style>
    </defs>
    <g id="noun_confirm_161138_000000" transform="translate(-1726 -270)">
        <path id="Path_1685" d="M14.876 7.538a7.338 7.338 0 1 0 7.339 7.338 7.347 7.347 0 0 0-7.339-7.338zm0 13.332a5.994 5.994 0 1 1 5.994-5.994 6 6 0 0 1-5.994 5.994z" class="cls-1" data-name="Path 1685" transform="translate(1718.463 262.462)"/>
        <path id="Path_1686" d="M33.227 34.222l-2.968 3-1.385-1.357c-.619-.607-1.571.343-.951.95l1.867 1.83a.679.679 0 0 0 .951 0l3.436-3.473a.673.673 0 0 0-.95-.95z" class="cls-1" data-name="Path 1686" transform="translate(1702.232 241.166)"/>
    </g>
</svg>
