<svg xmlns="http://www.w3.org/2000/svg" viewBox="0 0 17.896 17.112">
  <defs>
    <style>
      .cls-1 {
        fill: #868686;
      }
    </style>
  </defs>
  <g id="noun_event_1826628_000000" transform="translate(-8.139 -19)">
    <path id="Path_537" data-name="Path 537" class="cls-1" d="M10.2,33.109H16.27A5.109,5.109,0,1,0,24.105,27V21.914a2.064,2.064,0,0,0-2.062-2.062h-.509v-.2a.65.65,0,1,0-1.3,0v.2H12.01v-.2a.65.65,0,1,0-1.3,0v.2H10.2a2.064,2.064,0,0,0-2.062,2.062v9.133A2.064,2.064,0,0,0,10.2,33.109ZM24.735,31a3.81,3.81,0,1,1-3.81-3.81A3.815,3.815,0,0,1,24.735,31Zm-3.81-5.11a5.111,5.111,0,0,0-5.046,5.918H10.2a.763.763,0,0,1-.762-.762v-6.9H22.806v2.1A5.083,5.083,0,0,0,20.925,25.891ZM10.2,21.152h.509v.355a.65.65,0,0,0,1.3,0v-.355h8.225v.355a.65.65,0,0,0,1.3,0v-.355h.509a.763.763,0,0,1,.762.762v.938H9.439v-.938A.763.763,0,0,1,10.2,21.152Z"/>
    <path id="Path_538" data-name="Path 538" class="cls-1" d="M338.956,281.632H337.8v-1.761a.65.65,0,1,0-1.3,0v2.411a.65.65,0,0,0,.65.65h1.808a.65.65,0,0,0,0-1.3Z" transform="translate(-316.505 -250.827)"/>
  </g>
</svg>
