<svg xmlns="http://www.w3.org/2000/svg" viewBox="0 0 16 14.964">
  <defs>
    <style>
      .cls-1 {
        fill: #404040;
      }
    </style>
  </defs>
  <g id="noun_profile_317518_000000" transform="translate(-87.743 -70.991)">
    <g id="Group_2822" data-name="Group 2822" transform="translate(87.743 70.991)">
      <path id="Path_1503" data-name="Path 1503" class="cls-1" d="M35.145,25.677a4.3,4.3,0,0,0,4.145-4.439,4.155,4.155,0,1,0-8.291,0A4.3,4.3,0,0,0,35.145,25.677Z" transform="translate(-27.145 -16.8)"/>
      <path id="Path_1504" data-name="Path 1504" class="cls-1" d="M25.88,56.623l-.135-.023-.113.07a5.491,5.491,0,0,1-6.265,0l-.113-.07-.135.023a5.621,5.621,0,0,0-4.62,5.84v.35H30.207l.293-.023v-.35A5.613,5.613,0,0,0,25.88,56.623Z" transform="translate(-14.5 -47.851)"/>
    </g>
  </g>
</svg>
