<svg xmlns="http://www.w3.org/2000/svg" width="12.221" height="12.222" viewBox="0 0 12.221 12.222">
    <defs>
        <style>
            .cls-1{fill:#c00}
        </style>
    </defs>
    <path id="noun_reject_2015361_000000" d="M21.252 21.363a1.743 1.743 0 0 0-.368-2.374l-3.342-3.407 3.407-3.341a1.743 1.743 0 0 0 .414-2.366 1.743 1.743 0 0 0-2.374.368l-3.406 3.342-3.342-3.407a1.743 1.743 0 0 0-2.366-.414 1.742 1.742 0 0 0 .368 2.374l3.341 3.407-3.406 3.341a1.743 1.743 0 0 0-.414 2.366 1.742 1.742 0 0 0 2.374-.368l3.407-3.342 3.341 3.407a1.743 1.743 0 0 0 2.366.414z" class="cls-1" transform="translate(-9.453 -9.452)"/>
</svg>
