<svg xmlns="http://www.w3.org/2000/svg" xmlns:xlink="http://www.w3.org/1999/xlink" viewbox="0 0 16.301 18.629">
	<defs>
		<style>
			.cls-2 {
				fill: #000;
			}
		</style>
		<clippath id="clip-path">
			<path id="Path_260" data-name="Path 260" class="cls-1" d="M0-63.856H16.3v18.629H0Z" transform="translate(0 63.856)"/>
		</clippath>
	</defs>
	<g id="Group_652" data-name="Group 652" class="cls-2">
		<g id="Group_651" data-name="Group 651" transform="translate(0 0)">
			<path id="Path_259" data-name="Path 259" class="cls-1" d="M-39.574-29.68v3.742c0,1.466-3.651,2.662-8.15,2.662s-8.151-1.2-8.151-2.662V-29.68c1.751,1.206,4.956,1.767,8.151,1.767s6.4-.562,8.15-1.767m0-5.822v3.742c0,1.466-3.651,2.662-8.15,2.662s-8.151-1.2-8.151-2.662V-35.5c1.751,1.206,4.956,1.767,8.151,1.767s6.4-.561,8.15-1.767m0-3.742v1.663c0,1.466-3.651,2.661-8.15,2.661s-8.151-1.2-8.151-2.661v-1.663c0-1.466,3.651-2.661,8.151-2.661s8.15,1.2,8.15,2.661" transform="translate(55.875 41.906)"/>
		</g>
	</g>
</svg>
