<svg xmlns="http://www.w3.org/2000/svg" viewBox="0 0 496 496">
  <defs>
    <style>
      .cls-1 {
        fill: #2196F3;
      }
    </style>
  </defs>
  <path id="question-circle-regular" class="cls-1" d="M256,8C119.043,8,8,119.083,8,256,8,393,119.043,504,256,504S504,393,504,256C504,119.083,392.957,8,256,8Zm0,448A200,200,0,1,1,456,256,199.88,199.88,0,0,1,256,456ZM363.244,200.8c0,67.052-72.421,68.084-72.421,92.863V300a12,12,0,0,1-12,12H233.176a12,12,0,0,1-12-12v-8.659c0-35.745,27.1-50.034,47.579-61.516,17.561-9.845,28.324-16.541,28.324-29.579,0-17.246-22-28.693-39.784-28.693-23.189,0-33.894,10.977-48.942,29.969a12.008,12.008,0,0,1-16.666,2.124l-27.824-21.1a12.027,12.027,0,0,1-2.644-16.363C184.846,131.491,214.94,112,261.794,112,310.865,112,363.244,150.3,363.244,200.8ZM298,368a42,42,0,1,1-42-42A42.047,42.047,0,0,1,298,368Z" transform="translate(-8 -8)"/>
</svg>
