<svg id="noun_Calendar_689869" xmlns="http://www.w3.org/2000/svg" viewBox="0 0 32 32">
  <defs>
    <style>
      .cls-1 {
        fill: #868686;
      }
    </style>
  </defs>
  <g id="Group_2735" data-name="Group 2735">
    <path id="Path_546" data-name="Path 546" class="cls-1" d="M29.5,32H2.5A2.507,2.507,0,0,1,0,29.5V4.505A2.508,2.508,0,0,1,2.5,2h26.99A2.508,2.508,0,0,1,32,4.505V29.5A2.506,2.506,0,0,1,29.5,32ZM2.505,4A.506.506,0,0,0,2,4.505V29.5a.5.5,0,0,0,.5.5H29.5a.5.5,0,0,0,.5-.5V4.5A.506.506,0,0,0,29.5,4H2.505ZM31,10H1A1,1,0,0,1,1,8H31a1,1,0,0,1,0,2ZM6,6A1,1,0,0,1,5,5V1A1,1,0,0,1,7,1V5A1,1,0,0,1,6,6ZM26,6a1,1,0,0,1-1-1V1a1,1,0,0,1,2,0V5A1,1,0,0,1,26,6Z"/>
    <circle id="Ellipse_103" data-name="Ellipse 103" class="cls-1" cx="1" cy="1" r="1" transform="translate(5 17)"/>
    <circle id="Ellipse_104" data-name="Ellipse 104" class="cls-1" cx="1" cy="1" r="1" transform="translate(5 21)"/>
    <circle id="Ellipse_105" data-name="Ellipse 105" class="cls-1" cx="1" cy="1" r="1" transform="translate(5 25)"/>
    <circle id="Ellipse_106" data-name="Ellipse 106" class="cls-1" cx="1" cy="1" r="1" transform="translate(21 13)"/>
    <circle id="Ellipse_107" data-name="Ellipse 107" class="cls-1" cx="1" cy="1" r="1" transform="translate(21 17)"/>
    <circle id="Ellipse_108" data-name="Ellipse 108" class="cls-1" cx="1" cy="1" r="1" transform="translate(21 21)"/>
    <circle id="Ellipse_109" data-name="Ellipse 109" class="cls-1" cx="1" cy="1" r="1" transform="translate(21 25)"/>
    <circle id="Ellipse_110" data-name="Ellipse 110" class="cls-1" cx="1" cy="1" r="1" transform="translate(25 13)"/>
    <circle id="Ellipse_111" data-name="Ellipse 111" class="cls-1" cx="1" cy="1" r="1" transform="translate(25 17)"/>
    <circle id="Ellipse_112" data-name="Ellipse 112" class="cls-1" cx="1" cy="1" r="1" transform="translate(25 21)"/>
    <circle id="Ellipse_113" data-name="Ellipse 113" class="cls-1" cx="1" cy="1" r="1" transform="translate(13 13)"/>
    <circle id="Ellipse_114" data-name="Ellipse 114" class="cls-1" cx="1" cy="1" r="1" transform="translate(13 17)"/>
    <circle id="Ellipse_115" data-name="Ellipse 115" class="cls-1" cx="1" cy="1" r="1" transform="translate(13 21)"/>
    <circle id="Ellipse_116" data-name="Ellipse 116" class="cls-1" cx="1" cy="1" r="1" transform="translate(13 25)"/>
    <circle id="Ellipse_117" data-name="Ellipse 117" class="cls-1" cx="1" cy="1" r="1" transform="translate(9 13)"/>
    <circle id="Ellipse_118" data-name="Ellipse 118" class="cls-1" cx="1" cy="1" r="1" transform="translate(9 17)"/>
    <circle id="Ellipse_119" data-name="Ellipse 119" class="cls-1" cx="1" cy="1" r="1" transform="translate(9 21)"/>
    <circle id="Ellipse_120" data-name="Ellipse 120" class="cls-1" cx="1" cy="1" r="1" transform="translate(9 25)"/>
    <circle id="Ellipse_121" data-name="Ellipse 121" class="cls-1" cx="1" cy="1" r="1" transform="translate(17 13)"/>
    <circle id="Ellipse_122" data-name="Ellipse 122" class="cls-1" cx="1" cy="1" r="1" transform="translate(17 17)"/>
    <circle id="Ellipse_123" data-name="Ellipse 123" class="cls-1" cx="1" cy="1" r="1" transform="translate(17 21)"/>
    <circle id="Ellipse_124" data-name="Ellipse 124" class="cls-1" cx="1" cy="1" r="1" transform="translate(17 25)"/>
  </g>
</svg>
