<svg xmlns="http://www.w3.org/2000/svg" width="16" height="16" viewBox="0 0 16 16">
  <g id="icon-radio_unselect" transform="translate(0 0)" fill="#fff">
    <path d="M 8 15.5 C 3.864490032196045 15.5 0.5 12.13551044464111 0.5 8 C 0.5 3.864490032196045 3.864490032196045 0.5 8 0.5 C 12.13551044464111 0.5 15.5 3.864490032196045 15.5 8 C 15.5 10.62987995147705 14.12940979003906 13.00016975402832 11.73966026306152 14.5031099319458 C 10.76117992401123 15.12802982330322 9.364279747009277 15.5 8 15.5 Z" stroke="none"/>
    <path d="M 8 1 C 4.140190124511719 1 1 4.140190124511719 1 8 C 1 11.85980987548828 4.140190124511719 15 8 15 C 9.272830009460449 15 10.56912040710449 14.65740966796875 11.46759033203125 14.08358001708984 L 11.47052001953125 14.08170986175537 L 11.47347068786621 14.07985019683838 C 13.71463012695313 12.67036056518555 15 10.4543399810791 15 8 C 15 4.140190124511719 11.85980987548828 1 8 1 M 8 0 C 12.41827964782715 0 16 3.581720352172852 16 8 C 16 10.84976959228516 14.5099401473999 13.3515100479126 12.00584983825684 14.92636013031006 C 11.03158950805664 15.54860019683838 9.568510055541992 16 8 16 C 3.581720352172852 16 0 12.41827964782715 0 8 C 0 3.581720352172852 3.581720352172852 0 8 0 Z" stroke="none" fill="#868686"/>
  </g>
</svg>
