<svg xmlns="http://www.w3.org/2000/svg" viewBox="0 0 90 66">
  <defs>
    <style>
      .cls-1 {
        fill: #7c7c7c;
      }
    </style>
  </defs>
  <g id="Group_1" data-name="Group 1" transform="translate(-5 -969.36)">
    <path id="Path_1" data-name="Path 1" class="cls-1" d="M50,969.362a26.757,26.757,0,0,1,26.531,22.375A21.95,21.95,0,0,1,73,1035.36H24a18.961,18.961,0,0,1-.812-37.906A26.733,26.733,0,0,1,50,969.36Zm0,4a22.962,22.962,0,0,0-22.812,25.75,2,2,0,0,1-2,2.25H24a15,15,0,0,0,0,30H73a18.007,18.007,0,0,0,1.656-35.937,2,2,0,0,1-1.812-1.75A22.928,22.928,0,0,0,50,973.362Zm0,20a2.172,2.172,0,0,1,1.344.5l11,10a2.055,2.055,0,0,1,.156,2.844,2.092,2.092,0,0,1-2.844.125L52,999.862v21.5a2,2,0,0,1-4,0v-21.5l-7.656,6.969a2.131,2.131,0,0,1-2.844-.125,2.031,2.031,0,0,1,.156-2.844l11-10A1.746,1.746,0,0,1,50,993.362Z"/>
  </g>
</svg>
