<svg xmlns="http://www.w3.org/2000/svg" width="10" height="10" viewBox="0 0 10 10">
    <defs>
        <style>
            .cls-1{fill:#c00}
        </style>
    </defs>
    <path id="noun_reject_2015361_000000" d="M19.107 19.2a1.426 1.426 0 0 0-.3-1.942l-2.734-2.787 2.787-2.734A1.426 1.426 0 0 0 19.2 9.8a1.426 1.426 0 0 0-1.942.3l-2.787 2.734-2.734-2.787a1.426 1.426 0 0 0-1.937-.34 1.426 1.426 0 0 0 .3 1.942l2.734 2.787-2.787 2.734a1.426 1.426 0 0 0-.339 1.936 1.426 1.426 0 0 0 1.942-.3l2.787-2.734 2.734 2.787a1.426 1.426 0 0 0 1.936.341z" class="cls-1" transform="translate(-9.453 -9.452)"/>
</svg>
