<svg xmlns="http://www.w3.org/2000/svg" viewBox="0 0 496 496">
  <defs>
    <style>
      .cls-1 {
        fill: #390;
      }
    </style>
  </defs>
  <path id="plus-circle-solid" class="cls-1" d="M256,8C119,8,8,119,8,256S119,504,256,504,504,393,504,256,393,8,256,8ZM400,284a12.035,12.035,0,0,1-12,12H296v92a12.035,12.035,0,0,1-12,12H228a12.035,12.035,0,0,1-12-12V296H124a12.035,12.035,0,0,1-12-12V228a12.035,12.035,0,0,1,12-12h92V124a12.035,12.035,0,0,1,12-12h56a12.035,12.035,0,0,1,12,12v92h92a12.035,12.035,0,0,1,12,12Z" transform="translate(-8 -8)"/>
</svg>
