<svg xmlns="http://www.w3.org/2000/svg" width="19.973" height="18.287" viewBox="0 0 19.973 18.287">
	<defs>
		<style>
		.cls-1 {
			fill: #fff;
		}
		</style>
	</defs>
  <g id="noun_payment_2084741_000000" transform="translate(-13.561 -15.37)" class="cls-1">
    <ellipse id="Ellipse_175" data-name="Ellipse 175" cx="1.055" cy="0.598" rx="1.055" ry="0.598" transform="matrix(-0.966, -0.259, 0.259, -0.966, 18.802, 25.245)"/>
    <ellipse id="Ellipse_176" data-name="Ellipse 176" cx="0.598" cy="1.055" rx="0.598" ry="1.055" transform="translate(30.329 27.096) rotate(105.016)"/>
    <path id="Path_1538" data-name="Path 1538" d="M34.559,34.362a.645.645,0,0,0-.736.5c-.095.355.016.585.381.821Z" transform="translate(-10.807 -10.144)"/>
    <path id="Path_1539" data-name="Path 1539" d="M34.509,40.4c.481.038.761-.129.865-.522.1-.368-.038-.584-.506-.82Z" transform="translate(-11.19 -12.653)"/>
    <path id="Path_1540" data-name="Path 1540" d="M26.976,32.629a3.8,3.8,0,1,0,4.651-2.685A3.8,3.8,0,0,0,26.976,32.629Zm1.913,1.489.574.153c-.107.553.03.865.474,1.067l.389-1.451c-.763-.377-1.051-.876-.875-1.533a1.226,1.226,0,0,1,1.531-.917l.18-.671.477.127-.18.671a1.172,1.172,0,0,1,.686,1.669l-.548-.146c.138-.515.081-.814-.279-1l-.375,1.4c.747.359,1.149.77.946,1.524a1.294,1.294,0,0,1-1.613.964l-.132.49-.476-.128.13-.49A1.317,1.317,0,0,1,28.888,34.118Z" transform="translate(-7.096 -7.716)"/>
    <path id="Path_1541" data-name="Path 1541" d="M33.472,25.912a.469.469,0,0,0-.283-.217l-7.235-1.943a6.279,6.279,0,0,0-2.013.425l6.28,1.687a2.563,2.563,0,0,0,1.736,2.629l-1.416,5.284a2.562,2.562,0,0,0-2.817,1.408L16.874,32.277a2.563,2.563,0,0,0-1.736-2.628l1.416-5.284a2.5,2.5,0,0,0,.325.036,1.316,1.316,0,0,1,.524-.46,4.93,4.93,0,0,0,1.42-1.617q.137-.206.274-.4l-2.212-.592a.467.467,0,0,0-.571.329l-2.739,10.22a.466.466,0,0,0,.329.571l16.3,4.369a.482.482,0,0,0,.121.016.466.466,0,0,0,.45-.345l2.738-10.221A.468.468,0,0,0,33.472,25.912Z" transform="translate(0 -3.174)"/>
    <path id="Path_1542" data-name="Path 1542" d="M21.973,21.26c-1.4.747,1.63,1.7,4.542,0a6.269,6.269,0,0,1,3.79-1.222l5.7,1.528,1.451-1.888L32.686,15.37l-3.493,2.562H25.234C24.069,17.932,23.37,20.513,21.973,21.26Z" transform="translate(-4.306 0)"/>
  </g>
</svg>
