<svg xmlns="http://www.w3.org/2000/svg" width="20.875" height="13.821" viewBox="0 0 20.875 13.821">
  <path id="noun_back_591603_000000" d="M35.612,34.418H27.819l-8.21,0,4.065-4.064a1.051,1.051,0,1,0-1.486-1.486l-5.859,5.859a1.034,1.034,0,0,0-.131.16c-.016.024-.026.05-.041.074a1.2,1.2,0,0,0-.056.107.932.932,0,0,0-.029.095c-.011.035-.024.068-.031.1a.914.914,0,0,0-.017.163c0,.014,0,.028,0,.042s0,.032,0,.049a1.02,1.02,0,0,0,.016.157c.008.038.021.072.032.109a.618.618,0,0,0,.028.087,1.014,1.014,0,0,0,.061.117c.012.022.022.044.035.065a1.075,1.075,0,0,0,.134.163l5.857,5.857a1.051,1.051,0,1,0,1.487-1.486L19.61,36.519h8.208v-.006h7.793a1.069,1.069,0,1,0,0-2.1Z" transform="translate(-16.02 -28.558)"/>
</svg>
