<svg xmlns="http://www.w3.org/2000/svg" xmlns:xlink="http://www.w3.org/1999/xlink" viewBox="0 0 19.75 19.75">
  <defs>
    <style>
      .cls-1 {
        fill: #b8b8b8;
      }

      .cls-2 {
        clip-path: url(#clip-path);
      }

      .cls-3 {
        fill: #868686;
      }
    </style>
    <clipPath id="clip-path">
      <path id="Path_253" data-name="Path 253" class="cls-1" d="M0-213.875H19.75v19.75H0Z" transform="translate(0 213.875)"/>
    </clipPath>
  </defs>
  <g id="Group_717" data-name="Group 717" class="cls-2">
    <g id="Group_716" data-name="Group 716" transform="translate(0 0)">
      <path id="Path_252" data-name="Path 252" class="cls-3" d="M-121.25-134.478l-3.381-2.457a.481.481,0,0,1-.2-.386v-6.538a.479.479,0,0,1,.478-.478h1.274a.479.479,0,0,1,.478.478v5.642l2.66,1.935a.478.478,0,0,1,.1.669l-.749,1.031a.481.481,0,0,1-.669.1m-2.461,4.157a7.962,7.962,0,0,1-7.964-7.964,7.961,7.961,0,0,1,7.964-7.964,7.962,7.962,0,0,1,7.964,7.964,7.962,7.962,0,0,1-7.964,7.964m0-17.839a9.873,9.873,0,0,0-9.875,9.875,9.873,9.873,0,0,0,9.875,9.875,10.072,10.072,0,0,0,5.639-1.766,9.729,9.729,0,0,0,4.236-8.109,9.873,9.873,0,0,0-9.875-9.875" transform="translate(133.586 148.16)"/>
    </g>
  </g>
</svg>
