<svg xmlns="http://www.w3.org/2000/svg" viewBox="0 0 70.587 90">
  <g transform="translate(-14.706 -5)">
    <g>
      <path d="M49.368,52.915a5.138,5.138,0,0,1,5.135-5.13h3.75a5.112,5.112,0,0,1,3.273,1.182,24.721,24.721,0,0,0,3.642-.764,22.943,22.943,0,0,0,3.727-12.146,18.9,18.9,0,1,0-37.791,0c0,10.419,8.476,21.479,18.9,21.479a14.855,14.855,0,0,0,2.03-.146A5.121,5.121,0,0,1,49.368,52.915Z"/>
      <path d="M64.187,57.73A21.706,21.706,0,0,1,51,62.185H49A21.7,21.7,0,0,1,35.813,57.73,25.152,25.152,0,0,0,14.706,82.552C14.7,89.425,30.506,95,50,95s35.293-5.575,35.293-12.447A25.151,25.151,0,0,0,64.187,57.73Z"/>
      <path d="M23.522,50.6h.236a4.711,4.711,0,0,0,4.712-4.717V36.466a4.7,4.7,0,0,0-2.621-4.213,24.184,24.184,0,0,1,48.3,0,4.7,4.7,0,0,0-2.617,4.213v9.417a4.709,4.709,0,0,0,.334,1.751,23.055,23.055,0,0,1-11.244,3.754A2.834,2.834,0,0,0,58.253,50.1H54.5a2.824,2.824,0,1,0,0,5.648h3.75a2.811,2.811,0,0,0,2.493-1.525,25.355,25.355,0,0,0,12.961-4.367,4.653,4.653,0,0,0,2.536.749h.234a4.71,4.71,0,0,0,4.711-4.717V36.466A4.7,4.7,0,0,0,78.5,32.22a28.531,28.531,0,0,0-57,0,4.692,4.692,0,0,0-2.689,4.246v9.417A4.712,4.712,0,0,0,23.522,50.6Z"/>
    </g>
  </g>
</svg>
