<svg xmlns="http://www.w3.org/2000/svg" xmlns:xlink="http://www.w3.org/1999/xlink" viewBox="0 0 65 50">
  <defs>
    <style>
      .cls-1 {
        fill: #ffb500;
      }

      .cls-2 {
        fill: none;
        stroke: #fff;
        stroke-width: 2px;
      }

      .cls-3 {
        filter: url(#Rectangle_115);
      }
    </style>
    <filter id="Rectangle_115" x="0" y="0" width="65" height="50" filterUnits="userSpaceOnUse">
      <feOffset dy="3" input="SourceAlpha"/>
      <feGaussianBlur stdDeviation="3" result="blur"/>
      <feFlood flood-opacity="0.161"/>
      <feComposite operator="in" in2="blur"/>
      <feComposite in="SourceGraphic"/>
    </filter>
  </defs>
  <g id="Symbol_33_3" data-name="Symbol 33 – 3" transform="translate(-144 -774)">
    <g class="cls-3" transform="matrix(1, 0, 0, 1, 144, 774)">
      <path id="Rectangle_115-2" data-name="Rectangle 115" class="cls-1" d="M16,0H47a0,0,0,0,1,0,0V32a0,0,0,0,1,0,0H16A16,16,0,0,1,0,16v0A16,16,0,0,1,16,0Z" transform="translate(9 6)"/>
    </g>
    <g id="Group_6" data-name="Group 6" transform="translate(175.245 791)">
      <path id="Path_3" data-name="Path 3" class="cls-2" d="M0,0,3.885,5,0,10" transform="translate(3.885 10) rotate(180)"/>
      <path id="Path_4" data-name="Path 4" class="cls-2" d="M0,0,3.885,5,0,10" transform="translate(7.77 10) rotate(180)"/>
    </g>
  </g>
</svg>
