<svg xmlns="http://www.w3.org/2000/svg" id="_404" data-name="404" viewBox="0 0 319.551 128">
    <defs>
        <style>
            .cls-1{fill:#7d7d7d}
        </style>
    </defs>
    <path id="Path_245" d="M95.026 77.641c4.3 0 5.9 1.6 5.9 5.9v7.394c0 4.3-1.2 5.9-5.9 5.9H83.135v22.682c0 4.3-1.6 5.9-5.9 5.9h-8.489c-4.3 0-5.9-1.6-5.9-5.9V96.826H5.9c-4.3 0-5.9-1.6-5.9-5.9v-6.2a11.5 11.5 0 0 1 2.1-7.094L59.454 6.4a10.18 10.18 0 0 1 8.294-4.2h9.492c4.3 0 5.9 1.2 5.9 5.9v69.441h11.886zM62.951 31.277L25.38 77.641h37.571z" class="cls-1" data-name="Path 245" transform="translate(0 -.002)"/>
    <path id="Path_246" d="M114.3 41.667C114.3 16.087 131.187 0 160.064 0s45.664 16.087 45.664 41.667v44.466c0 25.78-16.787 41.867-45.664 41.867S114.3 111.913 114.3 86.133zm69.845 0c0-13.689-8.793-21.383-23.981-21.383s-23.981 7.794-23.981 21.383v44.466c0 13.689 8.793 21.583 23.981 21.583s23.981-7.994 23.981-21.583z" class="cls-1" data-name="Path 246" transform="translate(-.089)"/>
    <path id="Path_247" d="M313.826 77.641c4.3 0 5.9 1.6 5.9 5.9v7.394c0 4.3-1.2 5.9-5.9 5.9h-11.891v22.682c0 4.3-1.6 5.9-5.9 5.9h-8.493c-4.3 0-5.9-1.6-5.9-5.9V96.826H224.6c-4.3 0-5.9-1.6-5.9-5.9v-6.2a11.5 11.5 0 0 1 2.1-7.094L278.154 6.4a10.18 10.18 0 0 1 8.294-4.2h9.493c4.3 0 5.9 1.2 5.9 5.9v69.441h11.991zm-32.075-46.364L244.28 77.641h37.471z" class="cls-1" data-name="Path 247" transform="translate(-.171 -.002)"/>
</svg>
