<svg xmlns="http://www.w3.org/2000/svg" width="96" height="70" viewBox="0 0 96 70">
  <path id="Path_1726" data-name="Path 1726" d="M49.7,967.35a3.008,3.008,0,0,0-.563.125l-36.006,11a3,3,0,0,0-1.657,1.25l-9,14a3,3,0,0,0,2.375,4.595l6.157.344v24.692a3,3,0,0,0,2.125,2.844l36.006,11a3,3,0,0,0,1.75,0l36.006-11a3,3,0,0,0,2.125-2.844V998.668l6.157-.344a3,3,0,0,0,2.375-4.595l-9-14a3,3,0,0,0-1.657-1.25l-14-4.282a3.006,3.006,0,0,0-1.75,5.751l12.908,3.907,5.657,8.783-27.63,1.594-7.126-19.253,7.189,2.219a3.006,3.006,0,1,0,1.75-5.751l-13-3.97a3,3,0,0,0-1.188-.125ZM45.1,974.976,37.943,994.23l-27.629-1.594,5.657-8.783,29.13-8.877Zm1.907,12.1V1030.3l-30-9.158V999.012l22.848,1.313a3,3,0,0,0,2.969-1.938l4.188-11.315Zm6,0L57.2,998.387a3,3,0,0,0,2.969,1.938l22.847-1.313v22.129l-30,9.158V987.072Z" transform="translate(-2.008 -967.336)" fill="#7d7d7d"/>
</svg>
