<svg xmlns:dc="http://purl.org/dc/elements/1.1/" xmlns:cc="http://creativecommons.org/ns#" xmlns:rdf="http://www.w3.org/1999/02/22-rdf-syntax-ns#" xmlns:svg="http://www.w3.org/2000/svg" xmlns="http://www.w3.org/2000/svg" xmlns:sodipodi="http://sodipodi.sourceforge.net/DTD/sodipodi-0.dtd" xmlns:inkscape="http://www.inkscape.org/namespaces/inkscape" version="1.1" x="0px" y="0px" viewBox="0 0 100 125"><g transform="translate(0,-952.36218)"><path style="text-indent:0;text-transform:none;direction:ltr;block-progression:tb;baseline-shift:baseline;color:#000000;enable-background:accumulate;" d="m 49.695257,967.34999 a 3.0007881,3.0008229 0 0 0 -0.562591,0.12502 l -36.005857,11.00191 a 3.0007881,3.0008229 0 0 0 -1.65652,1.25022 l -9.001464,14.00244 a 3.0007881,3.0008229 0 0 0 2.3753864,4.59455 l 6.1572516,0.34381 0,24.69186 a 3.0007881,3.0008229 0 0 0 2.125346,2.8442 l 36.005857,11.0019 a 3.0007881,3.0008229 0 0 0 1.750284,0 l 36.005857,-11.0019 a 3.0007881,3.0008229 0 0 0 2.125346,-2.8442 l 0,-24.69186 6.157252,-0.34381 a 3.0007881,3.0008229 0 0 0 2.375386,-4.59455 l -9.001464,-14.00244 a 3.0007881,3.0008229 0 0 0 -1.65652,-1.25022 L 72.88653,974.19493 a 3.0056928,3.0057276 0 1 0 -1.750285,5.751 l 12.90835,3.90693 5.65717,8.78278 -27.629494,1.59403 -7.12616,-19.25336 7.18867,2.21914 a 3.0056927,3.0057275 0 1 0 1.750284,-5.751 L 50.88295,967.47501 a 3.0007881,3.0008229 0 0 0 -1.187693,-0.12502 z m -4.594497,7.62632 -7.157414,19.25336 -27.629495,-1.59403 5.65717,-8.78278 29.129739,-8.87655 z m 1.90656,12.09586 0,43.22633 -30.004881,-9.1579 0,-22.12885 22.847467,1.31275 a 3.0007881,3.0008229 0 0 0 2.969233,-1.93786 l 4.188181,-11.31447 z m 6.000976,0 4.188181,11.31447 a 3.0007881,3.0008229 0 0 0 2.969233,1.93786 l 22.847467,-1.31275 0,22.12885 -30.004881,9.1579 0,-43.22633 z" fill="#000000" fill-opacity="1" stroke="none" marker="none" visibility="visible" display="inline" overflow="visible"/></g><text x="0" y="115" fill="#000000" font-size="5px" font-weight="bold" font-family="'Helvetica Neue', Helvetica, Arial-Unicode, Arial, Sans-serif">Created by joeartcon</text><text x="0" y="120" fill="#000000" font-size="5px" font-weight="bold" font-family="'Helvetica Neue', Helvetica, Arial-Unicode, Arial, Sans-serif">from the Noun Project</text></svg>