<svg id="noun_scan_barcode_1960592_000000" data-name="noun_scan barcode_1960592_000000" xmlns="http://www.w3.org/2000/svg" width="153.42" height="153.42" viewBox="0 0 153.42 153.42">
  <g id="Group_2901" data-name="Group 2901" transform="translate(74.235 133.624)">
    <path id="Path_1572" data-name="Path 1572" d="M92.863,74.8H87.914V62.424a2.477,2.477,0,0,0-2.475-2.475H80.49a2.477,2.477,0,0,0-2.475,2.475v4.949A7.433,7.433,0,0,1,70.592,74.8H38.424A7.433,7.433,0,0,1,31,67.373V59.949h4.949v7.424a2.477,2.477,0,0,0,2.475,2.475H70.592a2.477,2.477,0,0,0,2.475-2.475V62.424A7.433,7.433,0,0,1,80.49,55h4.949a7.433,7.433,0,0,1,7.424,7.424Z" transform="translate(-31 -55)" fill="#c8c8c9"/>
  </g>
  <g id="Group_2902" data-name="Group 2902" transform="translate(136.098)">
    <path id="Path_1573" data-name="Path 1573" d="M73.322,18.322H68.373V5.949H56V1H73.322Z" transform="translate(-56 -1)" fill="#c8c8c9"/>
  </g>
  <g id="Group_2903" data-name="Group 2903" transform="translate(136.098 76.71)">
    <path id="Path_1574" data-name="Path 1574" d="M73.322,49.322H56V44.373H68.373V32h4.949Z" transform="translate(-56 -32)" fill="#c8c8c9"/>
  </g>
  <g id="Group_2904" data-name="Group 2904">
    <path id="Path_1575" data-name="Path 1575" d="M5.949,18.322H1V1H18.322V5.949H5.949Z" transform="translate(-1 -1)" fill="#c8c8c9"/>
  </g>
  <g id="Group_2905" data-name="Group 2905" transform="translate(0 14.847)">
    <path id="Path_1576" data-name="Path 1576" d="M5.949,32H1V49.322H18.322V44.373H5.949Z" transform="translate(-1 29.863)" fill="#c8c8c9"/>
    <path id="Path_1577" data-name="Path 1577" d="M54.162,18H26.388l3.3,9.9H50.863Z" transform="translate(36.435 9.22)" fill="#c8c8c9"/>
    <path id="Path_1578" data-name="Path 1578" d="M21,29.6a10.891,10.891,0,0,0,6.055,9.8,15.818,15.818,0,0,1,8.792,14.226V82.439a2.477,2.477,0,0,0,2.475,2.475h19.8a2.477,2.477,0,0,0,2.475-2.475V53.621A15.818,15.818,0,0,1,69.384,39.4a10.894,10.894,0,0,0,6.055-9.8V28H21Zm19.8,30.57a4.954,4.954,0,0,1,4.949-4.949h4.949a4.954,4.954,0,0,1,4.949,4.949V75.016a4.954,4.954,0,0,1-4.949,4.949H45.745A4.954,4.954,0,0,1,40.8,75.016Z" transform="translate(28.49 23.965)" fill="#c8c8c9"/>
    <path id="Path_1579" data-name="Path 1579" d="M67.083,18.294l-4.707,14.12H34.063l-4.707-14.12A12.349,12.349,0,0,0,21,29.939v7.424H75.439V29.939A12.349,12.349,0,0,0,67.083,18.294Z" transform="translate(28.49 9.653)" fill="#c8c8c9"/>
    <rect id="Rectangle_1594" data-name="Rectangle 1594" width="4.952" height="4.949" transform="translate(74.235 94.032)" fill="#c8c8c9"/>
    <path id="Path_1580" data-name="Path 1580" d="M29,55.475a2.477,2.477,0,0,0,2.475,2.475h9.9a2.477,2.477,0,0,0,2.475-2.475V53H29Z" transform="translate(40.286 60.828)" fill="#c8c8c9"/>
    <path id="Path_1581" data-name="Path 1581" d="M7,7V71.337H40.933a15.789,15.789,0,0,1-4.239-10.774V46.592a17.261,17.261,0,0,1,4.949-12.1V11.949h4.949V30.966a17.167,17.167,0,0,1,4.949-1.5V11.949H56.49V29.271h4.949V11.949h4.949V29.271h4.949V11.949h4.949V29.271h4.949V11.949h4.949v17.52a17.167,17.167,0,0,1,4.949,1.5V11.949h4.949V34.492a17.261,17.261,0,0,1,4.949,12.1V60.563a15.789,15.789,0,0,1-4.239,10.774h33.933V7Zm9.9,59.388H11.949V11.949H16.9Zm9.9,0H21.847V61.439H26.8Zm0-9.9H21.847V11.949H26.8Zm9.9-24.745H31.745v-19.8h4.949Zm69.286,0h-4.949v-19.8h4.949Zm9.9,34.643H110.93V11.949h4.949Zm9.9,0h-4.949V61.439h4.949Zm0-9.9h-4.949V11.949h4.949Z" transform="translate(7.847 -7)" fill="#c8c8c9"/>
    <rect id="Rectangle_1595" data-name="Rectangle 1595" width="4.949" height="4.949" transform="translate(74.235 84.134)" fill="#c8c8c9"/>
  </g>
</svg>
